<svg id="uramichiNoBoken" xmlns="http://www.w3.org/2000/svg" version="1.1" width="230" height="30" viewBox="0 0 226 20">
  <!-- Generator: Adobe Illustrator 29.3.1, SVG Export Plug-In . SVG Version: 2.1.0 Build 151)  -->
  <path id="uramichiNoboken" d="M10.26,12.21c0,.98-.25,1.73-.75,2.27s-1.2.8-2.11.8c-.79,0-1.43-.27-1.91-.8s-.73-1.23-.73-2.11V2.96H1.5v10.12c0,1.3.49,2.53,1.46,3.71s2.52,1.76,4.63,1.76c1.16,0,2.22-.25,3.16-.75s1.64-1.22,2.09-2.16.68-1.85.68-2.72V2.96h-3.26v9.25ZM23.38,7.76c-.43.32-.8.75-1.12,1.29h-.05v-1.61h-3.25v10.92h3.3v-4.86c0-.85.18-1.5.55-1.97s.89-.7,1.56-.7c.26,0,.53.03.8.08v-3.55c-.18-.03-.38-.05-.6-.05-.36,0-.76.16-1.19.48ZM37.35,8.97c-.56-.61-1.09-1.05-1.59-1.33s-1.06-.42-1.69-.42c-1.31,0-2.45.56-3.4,1.67s-1.43,2.45-1.43,4.01.45,2.91,1.35,4.01,1.98,1.65,3.26,1.65c.76,0,1.4-.16,1.92-.49s1.03-.85,1.54-1.58h.05v1.87h3.25V7.46h-3.25v1.51ZM36.59,14.83c-.46.51-1.01.77-1.65.77s-1.21-.22-1.62-.67-.62-1.03-.62-1.76c0-.78.22-1.42.65-1.94s.97-.77,1.61-.77,1.17.25,1.62.74.69,1.08.69,1.76c0,.73-.23,1.35-.69,1.86ZM60.3,7.19c-.56,0-1.16.18-1.81.55s-1.31.98-1.99,1.85c-.39-.9-.88-1.52-1.46-1.87s-1.13-.53-1.62-.53c-.31,0-.66.06-1.05.18s-.72.28-.99.48-.56.44-.86.73-.52.48-.67.58v-1.74h-3.28v10.92h3.28v-5.73c0-.67.2-1.24.61-1.72s.89-.72,1.45-.72c.47,0,.88.22,1.21.65s.5.97.5,1.61v5.9h3.22v-5.83c0-.64.2-1.2.61-1.66s.89-.7,1.45-.7c.47,0,.86.21,1.19.62s.5.92.5,1.52v6.06h3.25v-6.92c0-1.19-.34-2.2-1.03-3.02s-1.52-1.23-2.51-1.23ZM71.38,1.36c-.56,0-1.04.2-1.43.6s-.6.87-.6,1.43.2,1.04.6,1.44c.4.4.88.6,1.43.6s1.04-.2,1.43-.6c.4-.4.6-.88.6-1.44s-.2-1.03-.6-1.43-.88-.6-1.43-.6ZM69.77,18.35h3.25V7.43h-3.25v10.92ZM79.88,8.83c-1.02,1.07-1.53,2.43-1.53,4.06s.55,2.98,1.65,4.06,2.47,1.62,4.11,1.62c.74,0,1.66-.25,2.78-.76v-3.25c-1.07.42-1.94.63-2.59.63-.72,0-1.3-.22-1.74-.67s-.66-1.03-.66-1.75.22-1.31.67-1.76,1.03-.67,1.76-.67c.79,0,1.65.23,2.6.69v-3.07c-1.02-.51-2.08-.76-3.17-.76-1.57,0-2.86.54-3.88,1.61ZM99.04,7.25c-.67,0-1.26.11-1.76.34s-1.06.6-1.65,1.1V1.4h-3.3v16.95h3.3v-4.94c0-1.17.15-2.03.46-2.58s.8-.83,1.47-.83c.52,0,.97.24,1.33.72s.54,1.07.54,1.77v5.85h3.28v-6.42c0-1.46-.32-2.61-.97-3.43s-1.54-1.24-2.69-1.24ZM108.62,18.35h3.25V7.43h-3.25v10.92ZM110.23,1.36c-.56,0-1.04.2-1.43.6s-.6.87-.6,1.43.2,1.04.6,1.44c.4.4.88.6,1.43.6s1.04-.2,1.43-.6c.4-.4.6-.88.6-1.44s-.2-1.03-.6-1.43-.88-.6-1.43-.6ZM128.02,12.85l-7.06-9.89h-3.28v15.39h3.32v-9.96l7.04,9.96h3.23V2.96h-3.25v9.89ZM146.14,8.82c-1.06-1.09-2.38-1.63-3.94-1.63-1.68,0-3.06.53-4.14,1.6s-1.61,2.44-1.61,4.13c0,1.48.5,2.79,1.5,3.94s2.4,1.72,4.2,1.72c1.6,0,2.93-.54,3.99-1.62s1.59-2.45,1.59-4.09-.53-2.96-1.59-4.04ZM143.81,14.81c-.48.54-1.05.81-1.69.81-.68,0-1.25-.27-1.73-.83s-.72-1.22-.72-2.01c0-.72.24-1.34.72-1.85s1.06-.77,1.73-.77,1.21.27,1.69.83.72,1.19.72,1.93-.24,1.36-.72,1.9Z"/>
  <path id="boken" d="M160.89,9.94c.55-.47.96-.93,1.21-1.39.25-.46.38-1.02.38-1.68,0-1.05-.34-1.96-1.03-2.74-.69-.78-1.97-1.17-3.84-1.17h-4.48v15.39h5.15c1.76,0,3.12-.39,4.09-1.18.97-.79,1.45-1.89,1.45-3.31,0-.81-.22-1.58-.66-2.29-.44-.71-1.19-1.26-2.26-1.62ZM156.44,5.54h.78c.56,0,1.03.15,1.4.44.37.29.56.65.56,1.08,0,.53-.19.97-.57,1.32-.38.36-.85.54-1.41.54h-.76v-3.38ZM157.63,15.77h-1.19v-4.24h1.35c.82,0,1.46.19,1.9.58.44.39.66.94.66,1.66,0,1.33-.91,2-2.73,2ZM176.35,2.89h-5.83v2.27h5.83v-2.27ZM176.34,7.7c-.93-.53-1.92-.79-2.97-.79-1.46,0-2.74.51-3.87,1.52-1.28,1.16-1.92,2.61-1.92,4.36,0,1.63.57,3.01,1.7,4.15,1.13,1.14,2.5,1.71,4.1,1.71,1.09,0,2.08-.26,2.98-.77.9-.52,1.61-1.23,2.14-2.15.52-.92.78-1.9.78-2.95s-.26-2.02-.78-2.92-1.24-1.62-2.17-2.14ZM175.59,15.12c-.58.61-1.31.91-2.19.91s-1.6-.3-2.17-.9-.86-1.39-.86-2.36.29-1.72.87-2.32c.58-.61,1.3-.91,2.17-.91s1.62.3,2.19.9c.57.6.86,1.38.86,2.33s-.29,1.74-.87,2.35ZM194.06,7.43h-3.9l-3.22,4.26V1.4h-3.22v16.95h3.22v-5.78l3.78,5.78h3.65l-3.93-6.11,3.62-4.81ZM203.49,7.22c-1.57,0-2.88.54-3.95,1.61s-1.61,2.4-1.61,3.99c0,1.76.51,3.16,1.52,4.2s2.38,1.56,4.1,1.56c2.34,0,4.06-.97,5.17-2.91l-2.98-.99c-.57.91-1.35,1.36-2.35,1.36-.56,0-1.05-.22-1.47-.66s-.65-1.01-.69-1.71h7.78v-.52c0-1.69-.53-3.1-1.58-4.23s-2.37-1.69-3.94-1.69ZM201.26,11.48c.08-.65.33-1.16.74-1.51s.93-.53,1.56-.53c1.09,0,1.79.68,2.09,2.04h-4.39ZM223.48,8.45c-.68-.85-1.54-1.28-2.58-1.28-1.22,0-2.38.52-3.49,1.56v-1.29h-3.25v10.92h3.25v-5.41c0-.86.19-1.57.57-2.11s.87-.82,1.46-.82c.49,0,.91.22,1.25.65s.51.96.51,1.59v6.11h3.3v-6.63c0-1.33-.34-2.42-1.02-3.28Z" fill="#3fd0d4"/>
</svg>